<svg width="24" height="24" viewBox="0 0 24 24" fill="none" xmlns="http://www.w3.org/2000/svg">
<g clip-path="url(#clip0_1285_484)">
<path d="M12 1C9.82441 1 7.69767 1.64514 5.88873 2.85383C4.07979 4.06253 2.66989 5.78049 1.83733 7.79048C1.00477 9.80047 0.786929 12.0122 1.21137 14.146C1.6358 16.2798 2.68345 18.2398 4.22183 19.7782C5.76021 21.3165 7.72022 22.3642 9.85401 22.7886C11.9878 23.2131 14.1995 22.9952 16.2095 22.1627C18.2195 21.3301 19.9375 19.9202 21.1462 18.1113C22.3549 16.3023 23 14.1756 23 12C23 9.08262 21.8411 6.28473 19.7782 4.22183C17.7153 2.15893 14.9174 1 12 1ZM10.6342 6.5C10.6342 6.13533 10.779 5.78559 11.0369 5.52773C11.2948 5.26987 11.6445 5.125 12.0092 5.125C12.3738 5.125 12.7236 5.26987 12.9814 5.52773C13.2393 5.78559 13.3842 6.13533 13.3842 6.5V12.8158C13.3842 12.9964 13.3486 13.1752 13.2795 13.342C13.2104 13.5088 13.1091 13.6604 12.9814 13.7881C12.8538 13.9158 12.7022 14.0171 12.5354 14.0862C12.3685 14.1553 12.1897 14.1908 12.0092 14.1908C11.8286 14.1908 11.6498 14.1553 11.483 14.0862C11.3162 14.0171 11.1646 13.9158 11.0369 13.7881C10.9092 13.6604 10.8079 13.5088 10.7388 13.342C10.6697 13.1752 10.6342 12.9964 10.6342 12.8158V6.5ZM12 18.875C11.6882 18.875 11.3833 18.7825 11.1241 18.6093C10.8648 18.436 10.6627 18.1898 10.5434 17.9017C10.424 17.6136 10.3928 17.2966 10.4536 16.9907C10.5145 16.6849 10.6646 16.404 10.8851 16.1835C11.1056 15.963 11.3866 15.8128 11.6924 15.752C11.9983 15.6911 12.3153 15.7223 12.6034 15.8417C12.8915 15.961 13.1377 16.1631 13.311 16.4224C13.4842 16.6817 13.5767 16.9865 13.5767 17.2983C13.5767 17.7165 13.4106 18.1175 13.1149 18.4132C12.8192 18.7089 12.4182 18.875 12 18.875Z" fill="#FF2B43"/>
</g>
<defs>
<clipPath id="clip0_1285_484">
<rect width="24" height="24" fill="white"/>
</clipPath>
</defs>
</svg>
