<svg width="24" height="24" viewBox="0 0 24 24" fill="none" xmlns="http://www.w3.org/2000/svg">
<path fill-rule="evenodd" clip-rule="evenodd" d="M23 12C23 18.0753 18.0753 23 12 23C5.9247 23 1 18.0753 1 12C1 5.9247 5.9247 1 12 1C18.0753 1 23 5.9247 23 12ZM16.125 12C16.125 12.2188 16.0381 12.4286 15.8834 12.5834C15.7286 12.7381 15.5188 12.825 15.3 12.825H8.7C8.4812 12.825 8.27136 12.7381 8.11664 12.5834C7.96192 12.4286 7.875 12.2188 7.875 12C7.875 11.7812 7.96192 11.5714 8.11664 11.4166C8.27136 11.2619 8.4812 11.175 8.7 11.175H15.3C15.5188 11.175 15.7286 11.2619 15.8834 11.4166C16.0381 11.5714 16.125 11.7812 16.125 12Z" fill="#8995A2"/>
</svg>
