<svg width="54" height="53" viewBox="0 0 54 53" fill="none" xmlns="http://www.w3.org/2000/svg">
<g clip-path="url(#clip0_901_10093)">
<path d="M4.0166 3.18258C3.74735 2.98756 3.44233 2.84749 3.11894 2.77036C2.79556 2.69323 2.46015 2.68055 2.13187 2.73305C1.80358 2.78554 1.48885 2.90218 1.20564 3.07631C0.922438 3.25043 0.676302 3.47864 0.481289 3.74789C0.286276 4.01714 0.146206 4.32217 0.0690749 4.64555C-0.00805572 4.96893 -0.020736 5.30434 0.0317581 5.63263C0.0842523 5.96091 0.200893 6.27564 0.37502 6.55885C0.549147 6.84205 0.777351 7.08819 1.0466 7.2832L10.1254 13.8543V47.4187C10.125 47.8911 10.2569 48.3542 10.506 48.7555C10.7551 49.1569 11.1116 49.4805 11.5351 49.6898C11.9586 49.8991 12.4323 49.9857 12.9024 49.9398C13.3726 49.894 13.8205 49.7174 14.1956 49.4302L27.0004 39.636L39.8051 49.4302C40.1802 49.7174 40.6281 49.894 41.0983 49.9398C41.5684 49.9857 42.0421 49.8991 42.4656 49.6898C42.8891 49.4805 43.2456 49.1569 43.4947 48.7555C43.7438 48.3542 43.8757 47.8911 43.8754 47.4187V38.2961L49.9841 42.7173C50.2524 42.9236 50.5593 43.0741 50.8868 43.1597C51.2142 43.2453 51.5555 43.2644 51.8904 43.2158C52.2253 43.1672 52.5471 43.052 52.8368 42.8769C53.1264 42.7018 53.3779 42.4704 53.5766 42.1964C53.7752 41.9223 53.9169 41.6113 53.9932 41.2815C54.0695 40.9518 54.0789 40.6101 54.0209 40.2767C53.9629 39.9433 53.8385 39.6249 53.6553 39.3403C53.4721 39.0558 53.2336 38.8109 52.9541 38.6201L42.8493 31.3031L42.8021 31.2693L14.1619 10.53L14.1146 10.4962L4.0166 3.18258ZM13.9189 3.8677C14.0288 3.5282 14.2435 3.23228 14.5321 3.02246C14.8208 2.81264 15.1685 2.69973 15.5254 2.69995H39.9367C42.1136 2.69995 43.8754 4.4617 43.8754 6.63858V23.6823C43.8753 23.9932 43.7893 24.298 43.627 24.5631C43.4646 24.8282 43.2322 25.0433 42.9554 25.1847C42.6785 25.326 42.368 25.3882 42.0581 25.3643C41.7482 25.3404 41.4509 25.2314 41.199 25.0492L14.5365 5.75433C14.2474 5.54548 14.0319 5.25039 13.9209 4.91144C13.8099 4.57249 13.8092 4.20709 13.9189 3.8677Z" fill="#E6E8EB"/>
<path d="M13.9167 4.42912C14.0266 4.0981 14.2413 3.80956 14.5299 3.60499C14.8186 3.40041 15.1663 3.29031 15.5232 3.29053H39.9345C42.1114 3.29053 43.8732 5.00829 43.8732 7.13082V23.7491C43.8731 24.0522 43.7871 24.3493 43.6248 24.6078C43.4624 24.8663 43.23 25.076 42.9532 25.2139C42.6764 25.3517 42.3658 25.4124 42.0559 25.389C41.746 25.3657 41.4487 25.2594 41.1968 25.0818L14.5343 6.26865C14.2452 6.06501 14.0297 5.7773 13.9187 5.4468C13.8077 5.11631 13.807 4.76004 13.9167 4.42912Z" fill="#D0D6DD"/>
</g>
<defs>
<clipPath id="clip0_901_10093">
<rect width="54" height="52.6518" fill="white"/>
</clipPath>
</defs>
</svg>
