<svg width="20" height="20" viewBox="0 0 20 20" fill="none" xmlns="http://www.w3.org/2000/svg">
<path d="M2.5 20C1.8125 20 1.22417 19.7487 0.734999 19.2462C0.245833 18.7437 0.000833333 18.1389 0 17.4318V14.8636C0 14.4997 0.12 14.195 0.36 13.9493C0.6 13.7036 0.896666 13.5803 1.25 13.5795C1.60333 13.5786 1.90041 13.7019 2.14125 13.9493C2.38208 14.1967 2.50166 14.5014 2.5 14.8636V17.4318H17.5V14.8636C17.5 14.4997 17.62 14.195 17.86 13.9493C18.1 13.7036 18.3967 13.5803 18.75 13.5795C19.1033 13.5786 19.4004 13.7019 19.6412 13.9493C19.8821 14.1967 20.0016 14.5014 20 14.8636V17.4318C20 18.138 19.7554 18.7429 19.2662 19.2462C18.7771 19.7496 18.1883 20.0009 17.5 20H2.5ZM8.74999 4.39809L6.40624 6.80579C6.15624 7.06261 5.85958 7.18589 5.51625 7.17561C5.17291 7.16534 4.87583 7.03137 4.625 6.77369C4.39583 6.51687 4.27583 6.21724 4.265 5.87481C4.25416 5.53238 4.37416 5.23276 4.625 4.97594L9.12499 0.353149C9.24999 0.224738 9.38541 0.133995 9.53124 0.0809182C9.67708 0.0278417 9.83332 0.000875828 9.99999 1.97558e-05C10.1667 -0.000836316 10.3229 0.0261296 10.4687 0.0809182C10.6146 0.135707 10.75 0.22645 10.875 0.353149L15.375 4.97594C15.625 5.23276 15.745 5.53238 15.735 5.87481C15.725 6.21724 15.605 6.51687 15.375 6.77369C15.125 7.03051 14.8283 7.16448 14.485 7.17561C14.1417 7.18674 13.8446 7.06347 13.5937 6.80579L11.25 4.39809V13.5795C11.25 13.9433 11.13 14.2485 10.89 14.495C10.65 14.7416 10.3533 14.8644 9.99999 14.8636C9.64666 14.8627 9.34999 14.7394 9.10999 14.4937C8.86999 14.2481 8.74999 13.9433 8.74999 13.5795V4.39809Z" fill="#171F29"/>
</svg>
