<svg width="120" height="120" viewBox="0 0 120 120" fill="none" xmlns="http://www.w3.org/2000/svg">
<path fill-rule="evenodd" clip-rule="evenodd" d="M71.9712 12.5801C71.9712 12.2274 71.8311 11.889 71.5817 11.6396C71.3322 11.3901 70.9939 11.25 70.6411 11.25H33.3975C29.517 11.25 25.7955 12.7915 23.0516 15.5354C20.3076 18.2794 18.7661 22.0009 18.7661 25.8814V100.369C18.7661 104.249 20.3076 107.971 23.0516 110.715C25.7955 113.458 29.517 115 33.3975 115H86.6027C90.4831 115 94.2047 113.458 96.9486 110.715C99.6925 107.971 101.234 104.249 101.234 100.369V47.9456C101.234 47.5928 101.094 47.2545 100.844 47.005C100.595 46.7556 100.257 46.6155 99.9039 46.6155H75.9616C74.9033 46.6155 73.8883 46.195 73.14 45.4467C72.3917 44.6983 71.9712 43.6834 71.9712 42.6251V12.5801ZM75.9616 64.4551C77.0199 64.4551 78.0349 64.8755 78.7833 65.6239C79.5316 66.3722 79.952 67.3872 79.952 68.4455C79.952 69.5038 79.5316 70.5188 78.7833 71.2671C78.0349 72.0155 77.0199 72.4359 75.9616 72.4359H44.0385C42.9802 72.4359 41.9653 72.0155 41.2169 71.2671C40.4686 70.5188 40.0482 69.5038 40.0482 68.4455C40.0482 67.3872 40.4686 66.3722 41.2169 65.6239C41.9653 64.8755 42.9802 64.4551 44.0385 64.4551H75.9616ZM75.9616 85.7372C77.0199 85.7372 78.0349 86.1576 78.7833 86.9059C79.5316 87.6543 79.952 88.6692 79.952 89.7276C79.952 90.7859 79.5316 91.8009 78.7833 92.5492C78.0349 93.2975 77.0199 93.7179 75.9616 93.7179H44.0385C42.9802 93.7179 41.9653 93.2975 41.2169 92.5492C40.4686 91.8009 40.0482 90.7859 40.0482 89.7276C40.0482 88.6692 40.4686 87.6543 41.2169 86.9059C41.9653 86.1576 42.9802 85.7372 44.0385 85.7372H75.9616Z" fill="#A1A9FF"/>
<path d="M79.9521 14.3039C79.9521 13.3249 80.979 12.7024 81.7398 13.3143C82.3854 13.8357 82.9582 14.4422 83.4584 15.1339L99.4891 37.4641C99.8509 37.9749 99.4572 38.6346 98.8293 38.6346H81.2823C80.9295 38.6346 80.5912 38.4945 80.3417 38.245C80.0923 37.9956 79.9521 37.6572 79.9521 37.3045V14.3039Z" fill="#A1A9FF"/>
</svg>
