<svg width="24" height="24" viewBox="0 0 24 24" fill="none" xmlns="http://www.w3.org/2000/svg">
<path d="M9.34072 6.11791C9.88144 4.53545 12.0678 4.48752 12.7089 5.97413L12.7632 6.11882L13.4929 8.25289C13.6601 8.74231 13.9304 9.19017 14.2854 9.56626C14.6404 9.94236 15.0719 10.2379 15.5509 10.4331L15.7471 10.5063L17.8811 11.2352C19.4634 11.7759 19.5114 13.9624 18.0257 14.6036L17.8811 14.6578L15.7471 15.3876C15.2575 15.5547 14.8095 15.8249 14.4333 16.1799C14.0571 16.535 13.7614 16.9666 13.5661 17.4457L13.4929 17.641L12.7641 19.776C12.2234 21.3584 10.037 21.4064 9.39678 19.9206L9.34072 19.776L8.61192 17.6419C8.4448 17.1523 8.17462 16.7043 7.81959 16.328C7.46457 15.9517 7.03297 15.656 6.55392 15.4608L6.35861 15.3876L4.22465 14.6587C2.64137 14.118 2.59344 11.9314 4.07998 11.2912L4.22465 11.2352L6.35861 10.5063C6.848 10.3391 7.29584 10.0688 7.67192 9.71379C8.04799 9.35876 8.34356 8.92719 8.53868 8.44821L8.61192 8.25289L9.34072 6.11791ZM18.2862 3C18.4553 3 18.6211 3.04745 18.7646 3.13697C18.9082 3.22649 19.0237 3.35448 19.0981 3.50639L19.1415 3.61219L19.458 4.53997L20.3867 4.85646C20.5562 4.91406 20.7048 5.02069 20.8137 5.16284C20.9225 5.30499 20.9867 5.47626 20.9982 5.65495C21.0096 5.83363 20.9677 6.01169 20.8778 6.16655C20.788 6.32141 20.6542 6.44611 20.4934 6.52483L20.3867 6.56824L19.4589 6.88473L19.1425 7.81341C19.0848 7.9829 18.978 8.13144 18.8359 8.24022C18.6937 8.349 18.5224 8.41312 18.3437 8.42445C18.165 8.43578 17.987 8.39381 17.8322 8.30387C17.6774 8.21392 17.5528 8.08005 17.4742 7.91921L17.4308 7.81341L17.1143 6.88563L16.1857 6.56914C16.0161 6.51154 15.8675 6.40491 15.7587 6.26276C15.6498 6.12061 15.5856 5.94934 15.5742 5.77066C15.5627 5.59197 15.6046 5.41391 15.6945 5.25905C15.7843 5.10419 15.9182 4.9795 16.079 4.90077L16.1857 4.85736L17.1134 4.54087L17.4299 3.61219C17.4908 3.43353 17.6062 3.27843 17.7598 3.16864C17.9133 3.05886 18.0974 2.99989 18.2862 3Z" fill="#4741FF"/>
</svg>
