<svg width="24" height="24" viewBox="0 0 24 24" fill="none" xmlns="http://www.w3.org/2000/svg">
<path d="M12 3C12.2387 3 12.4676 3.09482 12.6364 3.2636C12.8052 3.43239 12.9 3.66131 12.9 3.9C12.9 4.13869 12.8052 4.36761 12.6364 4.5364C12.4676 4.70518 12.2387 4.8 12 4.8C10.576 4.8 9.18393 5.22227 7.99989 6.01342C6.81586 6.80456 5.89302 7.92905 5.34807 9.24468C4.80312 10.5603 4.66053 12.008 4.93835 13.4046C5.21616 14.8013 5.90189 16.0842 6.90883 17.0912C7.91577 18.0981 9.19869 18.7838 10.5953 19.0617C11.992 19.3395 13.4397 19.1969 14.7553 18.6519C16.0709 18.107 17.1954 17.1841 17.9866 16.0001C18.7777 14.8161 19.2 13.424 19.2 12C19.2 11.7613 19.2948 11.5324 19.4636 11.3636C19.6324 11.1948 19.8613 11.1 20.1 11.1C20.3387 11.1 20.5676 11.1948 20.7364 11.3636C20.9052 11.5324 21 11.7613 21 12C21 16.9707 16.9707 21 12 21C7.0293 21 3 16.9707 3 12C3 7.0293 7.0293 3 12 3ZM12 6.6C12.2387 6.6 12.4676 6.69482 12.6364 6.8636C12.8052 7.03239 12.9 7.2613 12.9 7.5C12.9 7.73869 12.8052 7.96761 12.6364 8.1364C12.4676 8.30518 12.2387 8.4 12 8.4C11.288 8.4 10.592 8.61114 9.99995 9.00671C9.40793 9.40228 8.94651 9.96453 8.67403 10.6223C8.40156 11.2802 8.33027 12.004 8.46917 12.7023C8.60808 13.4007 8.95095 14.0421 9.45442 14.5456C9.95788 15.0491 10.5993 15.3919 11.2977 15.5308C11.996 15.6697 12.7198 15.5984 13.3777 15.326C14.0355 15.0535 14.5977 14.5921 14.9933 14.0001C15.3889 13.408 15.6 12.712 15.6 12C15.6 11.7613 15.6948 11.5324 15.8636 11.3636C16.0324 11.1948 16.2613 11.1 16.5 11.1C16.7387 11.1 16.9676 11.1948 17.1364 11.3636C17.3052 11.5324 17.4 11.7613 17.4 12C17.4 13.068 17.0833 14.1121 16.4899 15.0001C15.8966 15.8881 15.0532 16.5802 14.0665 16.9889C13.0798 17.3977 11.994 17.5046 10.9465 17.2962C9.89901 17.0879 8.93683 16.5736 8.18162 15.8184C7.42642 15.0632 6.91212 14.101 6.70376 13.0535C6.4954 12.006 6.60234 10.9202 7.01105 9.93351C7.41976 8.94679 8.1119 8.10342 8.99992 7.51006C9.88795 6.9167 10.932 6.6 12 6.6ZM17.9139 3.09C18.0332 3.09 18.1477 3.13741 18.2321 3.2218C18.3165 3.30619 18.3639 3.42065 18.3639 3.54V5.187C18.3641 5.30619 18.4117 5.42042 18.496 5.50462C18.5804 5.58881 18.6947 5.6361 18.8139 5.6361H20.46C20.5793 5.6361 20.6938 5.68351 20.7782 5.7679C20.8626 5.85229 20.91 5.96675 20.91 6.0861V6.9096L19.2108 8.6088C18.8733 8.94639 18.4156 9.1361 17.9382 9.1362H16.1382L12.6372 12.6363C12.4675 12.8002 12.2401 12.891 12.0041 12.8889C11.7682 12.8869 11.5424 12.7922 11.3756 12.6253C11.2087 12.4585 11.114 12.2327 11.112 11.9968C11.1099 11.7608 11.2007 11.5334 11.3646 11.3637L14.8656 7.8636V6.0636C14.8655 5.58638 15.0548 5.12863 15.3921 4.791L17.0931 3.09H17.9139Z" fill="#4741FF"/>
</svg>
